<?xml version="1.0" encoding="UTF-8"?>
<!DOCTYPE svg PUBLIC "-//W3C//DTD SVG 1.0//EN" "http://www.w3.org/TR/2001/REC-SVG-20010904/DTD/svg10.dtd">
<!-- Creator: CorelDRAW 2020 (64 Bit) -->
<svg xmlns="http://www.w3.org/2000/svg" xml:space="preserve" width="210mm" height="210mm" version="1.0" style="shape-rendering:geometricPrecision; text-rendering:geometricPrecision; image-rendering:optimizeQuality; fill-rule:evenodd; clip-rule:evenodd"
viewBox="0 0 21000 21000"
 xmlns:xlink="http://www.w3.org/1999/xlink"
 xmlns:xodm="http://www.corel.com/coreldraw/odm/2003">
 <defs>
  <style type="text/css">
   <![CDATA[
    .fil4 {fill:#FEFEFE}
    .fil1 {fill:#FEFEFE}
    .fil0 {fill:#2C00D5}
    .fil2 {fill:#DE2E43}
    .fil3 {fill:#F58327}
   ]]>
  </style>
 </defs>
 <g id="Camada_x0020_1">
  <metadata id="CorelCorpID_0Corel-Layer"/>
  <g id="_2611529366304">
   <path class="fil0" d="M15669.58 15345.92c-3703.84,2286.44 -8559.9,1137.42 -10846.34,-2566.41 -2286.42,-3703.82 -1137.42,-8559.88 2566.41,-10846.32 3703.85,-2286.44 8559.9,-1137.41 10846.34,2566.41 2286.42,3703.82 1137.42,8559.88 -2566.41,10846.32z"/>
   <path class="fil0" d="M12220.85 9759.27c-618.41,381.76 -1429.2,189.92 -1810.96,-428.49 -381.75,-618.41 -189.9,-1429.2 428.5,-1810.95 618.41,-381.76 1429.2,-189.91 1810.95,428.5 381.76,618.4 189.91,1429.19 -428.49,1810.94z"/>
   <path class="fil1" d="M14771.59 13891.24c-2900.45,1790.49 -6703.17,890.71 -8493.67,-2009.72 -1790.49,-2900.43 -890.7,-6703.18 2009.75,-8493.67 2900.42,-1790.47 6703.15,-890.68 8493.64,2009.74 1790.49,2900.43 890.71,6703.18 -2009.72,8493.65z"/>
   <path class="fil0" d="M13796.04 12310.96c-2027.66,1251.71 -4686.1,622.66 -5937.81,-1404.99 -1251.72,-2027.66 -622.69,-4686.1 1404.97,-5937.82 2027.65,-1251.71 4686.12,-622.68 5937.81,1404.97 1251.71,2027.68 622.68,4686.12 -1404.97,5937.84z"/>
   <path class="fil1" d="M12912.06 10879c-1236.81,763.5 -2858.38,379.83 -3621.88,-856.99 -763.52,-1236.82 -379.83,-2858.4 856.99,-3621.9 1236.82,-763.5 2858.39,-379.83 3621.91,856.99 763.5,1236.82 379.8,2858.4 -857.02,3621.9z"/>
   <path class="fil1" d="M12220.85 9759.27c-618.41,381.76 -1429.2,189.92 -1810.96,-428.49 -381.75,-618.41 -189.9,-1429.2 428.5,-1810.95 618.41,-381.76 1429.2,-189.91 1810.95,428.5 381.76,618.4 189.91,1429.19 -428.49,1810.94z"/>
   <path class="fil2" d="M12220.84 9759.27c-618.41,381.76 -1429.19,189.92 -1810.95,-428.49 -381.76,-618.41 -189.9,-1429.2 428.51,-1810.96 618.41,-381.74 1429.18,-189.9 1810.94,428.51 381.76,618.41 189.9,1429.2 -428.5,1810.94z"/>
   <path class="fil3" d="M6850.12 17841.71l2157.12 -1523.86c441.97,1833.44 226.3,1370.73 -1632.9,3925.71l-524.22 -2401.85z"/>
   <path class="fil3" d="M1587.27 15819.06c1539.48,-1812.49 1529.28,-2775.89 3402.77,-2592.64l-945.59 2483.71 -2457.18 108.93z"/>
   <g>
    <path class="fil4" d="M4186.35 16122.91c442.38,-1430.12 983.74,-2937.29 1751.3,-4228.03 581.38,-977.63 1301.4,-1832.76 2275.5,-2437.48 1068.21,-663.17 2285.68,-927.5 3526.19,-1019.1l62.96 -4.62 13.41 61.65c369.97,1699.14 188.29,3337.13 -635.65,4875.13 -1032.05,1926.47 -2894.76,3371.7 -4767.21,4434.1l-41.47 23.52 -2200.11 -1656.36 15.08 -48.81z"/>
   </g>
   <path class="fil3" d="M4255.83 16144.4l2121.14 1596.92c3313.45,-1879.91 6328.71,-4817.14 5367.7,-9230.5 -3954.9,292.04 -5819.86,2237.99 -7488.84,7633.58z"/>
   <path class="fil3" d="M3414.29 16791.48l602.94 -404.61 2160.81 1623.08 -227.69 721.02 -2536.06 -1939.49z"/>
  </g>
 </g>
</svg>
